<?xml version="1.0" encoding="utf-8"?>
<!-- Generator: Adobe Illustrator 23.0.1, SVG Export Plug-In . SVG Version: 6.00 Build 0)  -->
<svg version="1.1" id="Premier_plan" xmlns="http://www.w3.org/2000/svg" xmlns:xlink="http://www.w3.org/1999/xlink" x="0px"
	 y="0px" viewBox="0 0 250 250" enable-background="new 0 0 250 250" xml:space="preserve">
<g>
	<circle fill="#FFFFFF" cx="125" cy="125" r="115.9"/>
	<path fill-rule="evenodd" clip-rule="evenodd" fill="#DC9600" d="M125,250C55.9,250,0,194.2,0,125.2C0,55.8,55.9,0,125,0
		c69.1,0,125,55.8,125,125.2C250,194.2,194.1,250,125,250z M125,18.6c-58.6,0-106.4,47.6-106.4,106.6c0,58.5,47.7,106.2,106.4,106.2
		s106.4-47.6,106.4-106.2C231.4,66.2,183.6,18.6,125,18.6z"/>
	<path fill-rule="evenodd" clip-rule="evenodd" fill="#DC9600" d="M170.5,179.9l-6.6-19.9c-5.7,3.4-14.1,6.2-23.3,6.2
		c-18.3,0-34.2-14.1-34.2-38.3c0-18.4,8.2-39.4,32.4-39.4c7.4,0,15.8,2.2,23.3,6.2l8.4-21.2c-8.4-3.8-18.9-6.7-33.2-6.7
		c-38.9,0-57.5,29.4-57.5,61.8c0,34.2,22.2,59.3,57.5,59.3C148.7,187.9,162.2,184.1,170.5,179.9"/>
</g>
</svg>
