<?xml version="1.0" encoding="utf-8"?>
<!-- Generator: Adobe Illustrator 23.0.1, SVG Export Plug-In . SVG Version: 6.00 Build 0)  -->
<svg version="1.1" id="Premier_plan" xmlns="http://www.w3.org/2000/svg" xmlns:xlink="http://www.w3.org/1999/xlink" x="0px"
	 y="0px" viewBox="0 0 249.6 250" enable-background="new 0 0 249.6 250" xml:space="preserve">
<g>
	<circle fill="#FFFFFF" cx="124.8" cy="125" r="115.9"/>
	<path fill-rule="evenodd" clip-rule="evenodd" fill="#009641" d="M124.8,250C55.8,250,0,194.2,0,125.2C0,55.8,55.8,0,124.8,0
		c69,0,124.8,55.8,124.8,125.2C249.6,194.2,193.8,250,124.8,250 M124.8,18.6c-58.6,0-106.2,47.6-106.2,106.6
		c0,58.5,47.7,106.2,106.2,106.2c58.5,0,106.2-47.7,106.2-106.2C231,66.2,183.3,18.6,124.8,18.6z"/>
	<path fill-rule="evenodd" clip-rule="evenodd" fill="#009641" d="M179.4,124.7c0-54.9-48.4-55.7-70.8-55.7h-34v116.7h32.9
		C143.2,185.7,179.4,175.7,179.4,124.7 M152.8,126.3c0,30.6-17.2,39.2-39.7,39.2h-12.6V89.3h11.8C128.1,89.3,152.8,93.6,152.8,126.3
		z"/>
</g>
</svg>
