<?xml version="1.0" encoding="utf-8"?>
<!-- Generator: Adobe Illustrator 23.0.1, SVG Export Plug-In . SVG Version: 6.00 Build 0)  -->
<svg version="1.1" id="Premier_plan" xmlns="http://www.w3.org/2000/svg" xmlns:xlink="http://www.w3.org/1999/xlink" x="0px"
	 y="0px" viewBox="0 0 249.5 250" enable-background="new 0 0 249.5 250" xml:space="preserve">
<g>
	<circle fill="#FFFFFF" cx="124.7" cy="125" r="115.9"/>
	<path fill-rule="evenodd" clip-rule="evenodd" fill="#DC5AB4" d="M124.7,250C55.8,250,0,194.2,0,125.2C0,55.8,55.8,0,124.7,0
		c69,0,124.7,55.8,124.7,125.2C249.5,194.2,193.7,250,124.7,250 M124.7,18.6c-58.5,0-106.2,47.6-106.2,106.6
		c0,58.6,47.6,106.2,106.2,106.2c58.5,0,106.2-47.6,106.2-106.2C230.9,66.2,183.3,18.6,124.7,18.6z"/>
	<polyline fill-rule="evenodd" clip-rule="evenodd" fill="#DC5AB4" points="162.3,186.3 162.3,165.3 113.6,165.3 113.6,134.7 
		158.2,134.7 158.2,114.6 113.6,114.6 113.6,90.6 159.8,90.6 159.8,69.6 87.6,69.6 87.6,186.3 162.3,186.3 	"/>
</g>
</svg>
