<?xml version="1.0" encoding="utf-8"?>
<!-- Generator: Adobe Illustrator 23.0.1, SVG Export Plug-In . SVG Version: 6.00 Build 0)  -->
<!DOCTYPE svg PUBLIC "-//W3C//DTD SVG 1.1//EN" "http://www.w3.org/Graphics/SVG/1.1/DTD/svg11.dtd" [
	<!ENTITY ns_extend "http://ns.adobe.com/Extensibility/1.0/">
	<!ENTITY ns_ai "http://ns.adobe.com/AdobeIllustrator/10.0/">
	<!ENTITY ns_graphs "http://ns.adobe.com/Graphs/1.0/">
	<!ENTITY ns_vars "http://ns.adobe.com/Variables/1.0/">
	<!ENTITY ns_imrep "http://ns.adobe.com/ImageReplacement/1.0/">
	<!ENTITY ns_sfw "http://ns.adobe.com/SaveForWeb/1.0/">
	<!ENTITY ns_custom "http://ns.adobe.com/GenericCustomNamespace/1.0/">
	<!ENTITY ns_adobe_xpath "http://ns.adobe.com/XPath/1.0/">
]>
<svg version="1.1" id="Livello_1" xmlns:x="&ns_extend;" xmlns:i="&ns_ai;" xmlns:graph="&ns_graphs;"
	 xmlns="http://www.w3.org/2000/svg" xmlns:xlink="http://www.w3.org/1999/xlink" x="0px" y="0px" viewBox="0 0 955.7 955.7"
	 style="enable-background:new 0 0 955.7 955.7;" xml:space="preserve">
<style type="text/css">
	.st0{fill:#FFFFFF;}
	.st1{fill:#FED100;}
</style>
<metadata>
	<sfw  xmlns="&ns_sfw;">
		<slices></slices>
		<sliceSourceBounds  bottomLeftOrigin="true" height="955.7" width="955.8" x="0" y="0"></sliceSourceBounds>
	</sfw>
</metadata>
<g>
	<circle class="st0" cx="477.9" cy="477.9" r="442.9"/>
	<path class="st1" d="M477.9,955.7c-64.5,0-127.1-12.6-186-37.6C235,894,183.9,859.6,140,815.7s-78.3-95-102.4-151.9
		C12.6,604.9,0,542.4,0,477.9s12.6-127.1,37.6-186c24-57,58.5-108.1,102.4-151.9c43.9-43.9,95-78.3,151.9-102.4
		C350.8,12.6,413.4,0,477.9,0s127.1,12.6,186,37.6c56.9,24.1,108,58.5,151.9,102.4s78.3,95,102.4,151.9
		c24.9,58.9,37.6,121.5,37.6,186s-12.6,127.1-37.6,186c-24.1,56.9-58.5,108-102.4,151.9s-95,78.3-151.9,102.4
		C604.9,943.1,542.4,955.7,477.9,955.7z M477.9,70c-55.1,0-108.5,10.8-158.7,32c-48.6,20.5-92.2,50-129.7,87.4
		s-66.9,81.1-87.4,129.7c-21.3,50.3-32,103.7-32,158.7c0,55.1,10.8,108.5,32,158.7c20.5,48.6,50,92.2,87.4,129.7
		c37.5,37.5,81.1,66.9,129.7,87.4c50.3,21.3,103.7,32,158.7,32c55.1,0,108.5-10.8,158.7-32c48.6-20.5,92.2-50,129.7-87.4
		c37.5-37.5,66.9-81.1,87.4-129.7c21.3-50.3,32-103.7,32-158.7c0-55.1-10.8-108.5-32-158.7c-20.5-48.6-50-92.2-87.4-129.7
		c-37.5-37.5-81.1-66.9-129.7-87.4C586.3,80.8,532.9,70,477.9,70z"/>
	<path class="st1" d="M481.7,728.9V628.3H277.1v-83.9L494,226.9h80.5V544h62.1v84.2h-62.1v100.6h-92.8V728.9z M481.7,544V373.2
		L366.8,544H481.7z"/>
</g>
</svg>
