<?xml version="1.0" encoding="utf-8"?>
<!-- Generator: Adobe Illustrator 21.0.2, SVG Export Plug-In . SVG Version: 6.00 Build 0)  -->
<svg version="1.1" id="Calque_1" xmlns="http://www.w3.org/2000/svg" xmlns:xlink="http://www.w3.org/1999/xlink" x="0px" y="0px"
	 viewBox="0 0 38.7 38.2" style="enable-background:new 0 0 38.7 38.2;" xml:space="preserve">
<style type="text/css">
	.st0{clip-path:url(#SVGID_2_);}
	.st1{fill:#FFFFFF;}
	.st2{fill:#898A89;}
	.st3{fill:none;stroke:#898A89;stroke-width:0.25;stroke-miterlimit:10;}
</style>
<title>Picto travaux</title>
<g>
	<g>
		<defs>
			<path id="SVGID_1_" d="M32.9,31.2L22.6,0.4c-0.1-0.2-0.2-0.3-0.5-0.3h-5.5c-0.2,0-0.4,0.1-0.5,0.3L5.8,31.2
				c-0.1,0.2-0.2,0.3-0.5,0.3H2.9L0.2,38h38.3l-2.7-6.4h-2.5C33.1,31.6,32.9,31.4,32.9,31.2z"/>
		</defs>
		<clipPath id="SVGID_2_">
			<use xlink:href="#SVGID_1_"  style="overflow:visible;"/>
		</clipPath>
		<g class="st0">
			<polygon class="st1" points="14.9,9.9 23.9,9.9 25.4,14.6 13.3,14.6 			"/>
			<polygon class="st1" points="11.8,19.4 26.9,19.4 28.9,25.3 9.8,25.3 			"/>
			<path class="st2" d="M32.9,31.2L22.6,0.4c-0.1-0.2-0.2-0.3-0.5-0.3h-5.5c-0.2,0-0.4,0.1-0.5,0.3L5.8,31.2
				c-0.1,0.2-0.2,0.3-0.5,0.3H2.9L0.2,38h38.3l-2.7-6.4h-2.5C33.1,31.6,32.9,31.4,32.9,31.2z"/>
			<polygon class="st1" points="11.9,7.2 25.8,7.2 28.1,13.3 9.6,13.3 			"/>
			<polygon class="st1" points="8,19.5 30.7,19.5 34.4,27.1 4.3,27.1 			"/>
		</g>
	</g>
</g>
<path class="st3" d="M32.9,31.2L22.6,0.4c-0.1-0.2-0.2-0.3-0.5-0.3h-5.5c-0.2,0-0.4,0.1-0.5,0.3L5.8,31.2c-0.1,0.2-0.2,0.3-0.5,0.3
	H2.9L0.2,38h38.3l-2.7-6.4h-2.5C33.1,31.6,32.9,31.4,32.9,31.2z"/>
<path class="st3" d="M32.3,29.6l0.7,1.8c0.1,0.2,0.2,0.3,0.4,0.3h2.4"/>
</svg>
